<svg xmlns="http://www.w3.org/2000/svg" viewBox="0 0 640 640" role="img" aria-label="شعار الزفاف">
  <defs>
    <linearGradient id="gold" x1="0" y1="0" x2="1" y2="1">
      <stop offset="0" stop-color="#D8BF85"/>
      <stop offset="0.48" stop-color="#C8A96A"/>
      <stop offset="1" stop-color="#8D733D"/>
    </linearGradient>
    <linearGradient id="cream" x1="0" y1="0" x2="0" y2="1">
      <stop offset="0" stop-color="#FAF7F1"/>
      <stop offset="1" stop-color="#EEEBE4"/>
    </linearGradient>
    <filter id="shadow" x="-20%" y="-20%" width="140%" height="140%">
      <feDropShadow dx="0" dy="12" stdDeviation="12" flood-color="#5E5048" flood-opacity="0.16"/>
    </filter>
  </defs>
  <rect width="640" height="640" fill="none"/>
  <g filter="url(#shadow)">
    <circle cx="320" cy="320" r="250" fill="url(#cream)" opacity="0.72"/>
    <circle cx="320" cy="320" r="226" fill="none" stroke="url(#gold)" stroke-width="6"/>
    <circle cx="320" cy="320" r="202" fill="none" stroke="#D8BF85" stroke-width="2" opacity="0.55"/>
    <path d="M320 83 C342 116 369 132 407 129 C390 153 393 182 423 200 C390 200 367 219 360 251 C348 219 332 198 320 184 C308 198 292 219 280 251 C273 219 250 200 217 200 C247 182 250 153 233 129 C271 132 298 116 320 83Z" fill="none" stroke="url(#gold)" stroke-width="8" stroke-linejoin="round"/>
    <path d="M173 216 C132 256 112 306 118 369 C124 432 162 482 218 510 C193 464 196 415 225 364 C249 321 279 276 298 219" fill="none" stroke="url(#gold)" stroke-width="12" stroke-linecap="round"/>
    <path d="M467 216 C508 256 528 306 522 369 C516 432 478 482 422 510 C447 464 444 415 415 364 C391 321 361 276 342 219" fill="none" stroke="url(#gold)" stroke-width="12" stroke-linecap="round"/>
    <text x="320" y="356" text-anchor="middle" direction="ltr" font-family="Georgia, 'Times New Roman', serif" font-size="214" font-weight="700" fill="url(#gold)" stroke="#8D733D" stroke-width="2">Z&amp;A</text>
    <path d="M196 438 C252 464 388 464 444 438" fill="none" stroke="url(#gold)" stroke-width="7" stroke-linecap="round"/>
    <path d="M214 467 C270 492 370 492 426 467" fill="none" stroke="#D8BF85" stroke-width="3" stroke-linecap="round"/>
  </g>
</svg>
